<svg xmlns="http://www.w3.org/2000/svg" width="26" height="26" id="mail">
  <g fill="#fff" transform="translate(5 -1031.362)">
    <circle cx="8" cy="1044.362" r="13" fill="#239fdb"></circle>
    <path fill="#0b5ecd" d="M13.51 25.982a13 13 0 0 0 .41-.015 13 13 0 0 0 1.289-.156 13 13 0 0 0 1.268-.286 13 13 0 0 0 1.234-.408 13 13 0 0 0 1.185-.531 13 13 0 0 0 1.127-.647 13 13 0 0 0 1.057-.755 13 13 0 0 0 .977-.858 13 13 0 0 0 .886-.951 13 13 0 0 0 .786-1.035 13 13 0 0 0 .68-1.108 13 13 0 0 0 .566-1.17 13 13 0 0 0 .445-1.22 13 13 0 0 0 .32-1.26 13 13 0 0 0 .196-1.285 13 13 0 0 0 .039-.799l-4.977-4.977V8.52a.5.5 0 0 0-.502-.5H5.641L5.62 8l-.012.016h-.082a.5.5 0 0 0-.5.5v.232L5 8.783l.027.028V17.5a.5.5 0 0 0 .5.5l7.983 7.982z" color="#000" font-family="sans-serif" font-weight="400" style="line-height:normal;text-indent:0;text-align:start;text-decoration-line:none;text-decoration-style:solid;text-decoration-color:#000;text-transform:none;block-progression:tb;isolation:auto;mix-blend-mode:normal" transform="translate(-5 1031.362)"></path>
    <path d="m.621 3-.012.016H.527a.5.5 0 0 0-.5.5v.232L0 3.783l.027.022V12.5a.5.5 0 0 0 .5.5h14.97a.5.5 0 0 0 .501-.5V3.809L16 3.807l-.002-.002v-.29a.5.5 0 0 0-.502-.5H.641L.62 3Zm1.281 1.016H14.13l-6.11 4.847-6.117-4.847Zm-.877.582 6.686 5.297a.5.5 0 0 0 .62 0l6.665-5.293V12H1.026V4.598z" color="#000" font-family="sans-serif" font-weight="400" overflow="visible" style="line-height:normal;text-indent:0;text-align:start;text-decoration-line:none;text-decoration-style:solid;text-decoration-color:#000;text-transform:none;block-progression:tb;isolation:auto;mix-blend-mode:normal" transform="translate(0 1036.362)"></path>
  </g>
</svg>
