<svg width="1080" height="1080" viewBox="0 0 1080 1080" fill="none" xmlns="http://www.w3.org/2000/svg">
<rect width="1080" height="1080" fill="#1E1E1E"/>
<rect width="1080" height="1080" fill="white"/>
<path d="M706.5 444.957V297.727C706.493 291.272 704.786 284.933 701.548 279.344C698.311 273.756 693.658 269.116 688.056 265.888L558.944 192.273C553.337 189.043 546.975 187.342 540.5 187.342C534.025 187.342 527.663 189.043 522.056 192.273L392.944 265.888C387.342 269.116 382.689 273.756 379.452 279.344C376.214 284.933 374.507 291.272 374.5 297.727V444.957C374.507 451.412 376.214 457.751 379.452 463.339C382.689 468.928 387.342 473.568 392.944 476.796L522.056 550.411C527.663 553.641 534.025 555.342 540.5 555.342C546.975 555.342 553.337 553.641 558.944 550.411L688.056 476.796C693.658 473.568 698.311 468.928 701.548 463.339C704.786 457.751 706.493 451.412 706.5 444.957Z" stroke="black" stroke-width="4.16667" stroke-linecap="round" stroke-linejoin="round"/>
<path d="M457.5 228.342L540.5 276.342L623.5 228.342" stroke="black" stroke-width="4.16667" stroke-linecap="round" stroke-linejoin="round"/>
<path d="M457.5 515.342V419.404L374.5 371.342" stroke="black" stroke-width="4.16667" stroke-linecap="round" stroke-linejoin="round"/>
<path d="M706.5 371.342L623.5 419.404V515.342" stroke="black" stroke-width="4.16667" stroke-linecap="round" stroke-linejoin="round"/>
<path d="M379.5 279.342L540.5 372.342L701.5 279.342" stroke="black" stroke-width="4.16667" stroke-linecap="round" stroke-linejoin="round"/>
<path d="M540.5 557.342V371.342" stroke="black" stroke-width="4.16667" stroke-linecap="round" stroke-linejoin="round"/>
<path d="M301.875 711L274.375 621.391H273.672C273.776 623.526 273.932 626.755 274.141 631.078C274.401 635.349 274.635 639.906 274.844 644.75C275.052 649.594 275.156 653.969 275.156 657.875V711H253.516V596.781H286.484L313.516 684.125H313.984L342.656 596.781H375.625V711H353.047V656.938C353.047 653.344 353.099 649.203 353.203 644.516C353.359 639.828 353.542 635.375 353.75 631.156C353.958 626.885 354.115 623.682 354.219 621.547H353.516L324.062 711H301.875ZM440 643.812L463.828 596.781H489.922L452.031 666.547V711H427.969V667.328L390.078 596.781H416.328L440 643.812ZM597.891 711H573.75V661.703H528.516V711H504.297V596.781H528.516V641.547H573.75V596.781H597.891V711ZM719.766 596.781V670.688C719.766 678.552 718.021 685.661 714.531 692.016C711.094 698.318 705.859 703.318 698.828 707.016C691.849 710.714 683.047 712.562 672.422 712.562C657.318 712.562 645.807 708.708 637.891 701C629.974 693.292 626.016 683.083 626.016 670.375V596.781H650.156V666.703C650.156 676.13 652.083 682.745 655.938 686.547C659.792 690.349 665.495 692.25 673.047 692.25C678.359 692.25 682.656 691.339 685.938 689.516C689.271 687.693 691.719 684.88 693.281 681.078C694.844 677.276 695.625 672.432 695.625 666.547V596.781H719.766ZM747.734 596.781H783.281C798.49 596.781 810 598.917 817.812 603.188C825.625 607.458 829.531 614.958 829.531 625.688C829.531 630.01 828.828 633.917 827.422 637.406C826.068 640.896 824.089 643.76 821.484 646C818.88 648.24 815.703 649.698 811.953 650.375V651.156C815.755 651.938 819.193 653.292 822.266 655.219C825.339 657.094 827.786 659.854 829.609 663.5C831.484 667.094 832.422 671.885 832.422 677.875C832.422 684.802 830.729 690.74 827.344 695.688C823.958 700.635 819.115 704.438 812.812 707.094C806.562 709.698 799.115 711 790.469 711H747.734V596.781ZM771.953 642.016H786.016C793.047 642.016 797.917 640.922 800.625 638.734C803.333 636.495 804.688 633.214 804.688 628.891C804.688 624.516 803.073 621.391 799.844 619.516C796.667 617.589 791.615 616.625 784.688 616.625H771.953V642.016ZM771.953 661.234V691H787.734C795.026 691 800.104 689.594 802.969 686.781C805.833 683.969 807.266 680.193 807.266 675.453C807.266 672.641 806.641 670.167 805.391 668.031C804.141 665.896 802.031 664.229 799.062 663.031C796.146 661.833 792.109 661.234 786.953 661.234H771.953Z" fill="black"/>
<path d="M334.203 758.539C334.203 762.398 333.461 765.625 331.977 768.219C330.508 770.797 328.375 772.742 325.578 774.055C322.781 775.352 319.414 776 315.477 776H305.773V741.734H316.531C320.125 741.734 323.242 742.375 325.883 743.656C328.523 744.922 330.57 746.805 332.023 749.305C333.477 751.789 334.203 754.867 334.203 758.539ZM326.656 758.727C326.656 756.195 326.281 754.117 325.531 752.492C324.797 750.852 323.703 749.641 322.25 748.859C320.812 748.078 319.031 747.688 316.906 747.688H313.039V770H316.156C319.703 770 322.336 769.055 324.055 767.164C325.789 765.273 326.656 762.461 326.656 758.727ZM341.305 776V741.734H348.57V776H341.305ZM370.203 756.758H383.797V774.523C382 775.117 380.133 775.594 378.195 775.953C376.258 776.297 374.062 776.469 371.609 776.469C368.203 776.469 365.312 775.797 362.938 774.453C360.562 773.109 358.758 771.125 357.523 768.5C356.289 765.875 355.672 762.648 355.672 758.82C355.672 755.227 356.359 752.117 357.734 749.492C359.125 746.867 361.148 744.836 363.805 743.398C366.477 741.961 369.734 741.242 373.578 741.242C375.391 741.242 377.18 741.438 378.945 741.828C380.711 742.219 382.312 742.727 383.75 743.352L381.336 749.164C380.289 748.633 379.094 748.188 377.75 747.828C376.406 747.469 375 747.289 373.531 747.289C371.422 747.289 369.586 747.773 368.023 748.742C366.477 749.711 365.273 751.07 364.414 752.82C363.57 754.555 363.148 756.602 363.148 758.961C363.148 761.195 363.453 763.18 364.062 764.914C364.672 766.633 365.633 767.984 366.945 768.969C368.258 769.938 369.969 770.422 372.078 770.422C373.109 770.422 373.977 770.375 374.68 770.281C375.398 770.172 376.07 770.062 376.695 769.953V762.805H370.203V756.758ZM391.977 776V741.734H399.242V776H391.977ZM421.086 776H413.82V747.781H404.516V741.734H430.391V747.781H421.086V776ZM456.641 776L454.156 767.844H441.664L439.18 776H431.352L443.445 741.594H452.328L464.469 776H456.641ZM452.422 761.75L449.938 753.781C449.781 753.25 449.57 752.57 449.305 751.742C449.055 750.898 448.797 750.047 448.531 749.188C448.281 748.312 448.078 747.555 447.922 746.914C447.766 747.555 447.547 748.352 447.266 749.305C447 750.242 446.742 751.133 446.492 751.977C446.242 752.82 446.062 753.422 445.953 753.781L443.492 761.75H452.422ZM468.805 776V741.734H476.07V770H489.969V776H468.805ZM528.641 766.484C528.641 768.516 528.148 770.281 527.164 771.781C526.18 773.281 524.742 774.438 522.852 775.25C520.977 776.062 518.695 776.469 516.008 776.469C514.82 776.469 513.656 776.391 512.516 776.234C511.391 776.078 510.305 775.852 509.258 775.555C508.227 775.242 507.242 774.859 506.305 774.406V767.656C507.93 768.375 509.617 769.023 511.367 769.602C513.117 770.18 514.852 770.469 516.57 770.469C517.758 770.469 518.711 770.312 519.43 770C520.164 769.688 520.695 769.258 521.023 768.711C521.352 768.164 521.516 767.539 521.516 766.836C521.516 765.977 521.227 765.242 520.648 764.633C520.07 764.023 519.273 763.453 518.258 762.922C517.258 762.391 516.125 761.82 514.859 761.211C514.062 760.836 513.195 760.383 512.258 759.852C511.32 759.305 510.43 758.641 509.586 757.859C508.742 757.078 508.047 756.133 507.5 755.023C506.969 753.898 506.703 752.555 506.703 750.992C506.703 748.945 507.172 747.195 508.109 745.742C509.047 744.289 510.383 743.18 512.117 742.414C513.867 741.633 515.93 741.242 518.305 741.242C520.086 741.242 521.781 741.453 523.391 741.875C525.016 742.281 526.711 742.875 528.477 743.656L526.133 749.305C524.555 748.664 523.141 748.172 521.891 747.828C520.641 747.469 519.367 747.289 518.07 747.289C517.164 747.289 516.391 747.438 515.75 747.734C515.109 748.016 514.625 748.422 514.297 748.953C513.969 749.469 513.805 750.07 513.805 750.758C513.805 751.57 514.039 752.258 514.508 752.82C514.992 753.367 515.711 753.898 516.664 754.414C517.633 754.93 518.836 755.531 520.273 756.219C522.023 757.047 523.516 757.914 524.75 758.82C526 759.711 526.961 760.766 527.633 761.984C528.305 763.188 528.641 764.688 528.641 766.484ZM565.953 758.82C565.953 761.461 565.625 763.867 564.969 766.039C564.312 768.195 563.312 770.055 561.969 771.617C560.641 773.18 558.953 774.383 556.906 775.227C554.859 776.055 552.438 776.469 549.641 776.469C546.844 776.469 544.422 776.055 542.375 775.227C540.328 774.383 538.633 773.18 537.289 771.617C535.961 770.055 534.969 768.188 534.312 766.016C533.656 763.844 533.328 761.43 533.328 758.773C533.328 755.227 533.906 752.141 535.062 749.516C536.234 746.875 538.031 744.828 540.453 743.375C542.875 741.922 545.953 741.195 549.688 741.195C553.406 741.195 556.461 741.922 558.852 743.375C561.258 744.828 563.039 746.875 564.195 749.516C565.367 752.156 565.953 755.258 565.953 758.82ZM540.945 758.82C540.945 761.211 541.242 763.273 541.836 765.008C542.445 766.727 543.391 768.055 544.672 768.992C545.953 769.914 547.609 770.375 549.641 770.375C551.703 770.375 553.375 769.914 554.656 768.992C555.938 768.055 556.867 766.727 557.445 765.008C558.039 763.273 558.336 761.211 558.336 758.82C558.336 755.227 557.664 752.398 556.32 750.336C554.977 748.273 552.766 747.242 549.688 747.242C547.641 747.242 545.969 747.711 544.672 748.648C543.391 749.57 542.445 750.898 541.836 752.633C541.242 754.352 540.945 756.414 540.945 758.82ZM573.055 776V741.734H580.32V770H594.219V776H573.055ZM628.086 741.734V763.906C628.086 766.266 627.562 768.398 626.516 770.305C625.484 772.195 623.914 773.695 621.805 774.805C619.711 775.914 617.07 776.469 613.883 776.469C609.352 776.469 605.898 775.312 603.523 773C601.148 770.688 599.961 767.625 599.961 763.812V741.734H607.203V762.711C607.203 765.539 607.781 767.523 608.938 768.664C610.094 769.805 611.805 770.375 614.07 770.375C615.664 770.375 616.953 770.102 617.938 769.555C618.938 769.008 619.672 768.164 620.141 767.023C620.609 765.883 620.844 764.43 620.844 762.664V741.734H628.086ZM649.695 776H642.43V747.781H633.125V741.734H659V747.781H649.695V776ZM664.273 776V741.734H671.539V776H664.273ZM711.266 758.82C711.266 761.461 710.938 763.867 710.281 766.039C709.625 768.195 708.625 770.055 707.281 771.617C705.953 773.18 704.266 774.383 702.219 775.227C700.172 776.055 697.75 776.469 694.953 776.469C692.156 776.469 689.734 776.055 687.688 775.227C685.641 774.383 683.945 773.18 682.602 771.617C681.273 770.055 680.281 768.188 679.625 766.016C678.969 763.844 678.641 761.43 678.641 758.773C678.641 755.227 679.219 752.141 680.375 749.516C681.547 746.875 683.344 744.828 685.766 743.375C688.188 741.922 691.266 741.195 695 741.195C698.719 741.195 701.773 741.922 704.164 743.375C706.57 744.828 708.352 746.875 709.508 749.516C710.68 752.156 711.266 755.258 711.266 758.82ZM686.258 758.82C686.258 761.211 686.555 763.273 687.148 765.008C687.758 766.727 688.703 768.055 689.984 768.992C691.266 769.914 692.922 770.375 694.953 770.375C697.016 770.375 698.688 769.914 699.969 768.992C701.25 768.055 702.18 766.727 702.758 765.008C703.352 763.273 703.648 761.211 703.648 758.82C703.648 755.227 702.977 752.398 701.633 750.336C700.289 748.273 698.078 747.242 695 747.242C692.953 747.242 691.281 747.711 689.984 748.648C688.703 749.57 687.758 750.898 687.148 752.633C686.555 754.352 686.258 756.414 686.258 758.82ZM748.766 776H739.531L724.625 750.078H724.414C724.477 751.156 724.531 752.242 724.578 753.336C724.625 754.43 724.672 755.523 724.719 756.617C724.766 757.695 724.812 758.781 724.859 759.875V776H718.367V741.734H727.531L742.414 767.398H742.578C742.547 766.336 742.508 765.281 742.461 764.234C742.414 763.188 742.367 762.141 742.32 761.094C742.289 760.047 742.258 759 742.227 757.953V741.734H748.766V776ZM777.641 766.484C777.641 768.516 777.148 770.281 776.164 771.781C775.18 773.281 773.742 774.438 771.852 775.25C769.977 776.062 767.695 776.469 765.008 776.469C763.82 776.469 762.656 776.391 761.516 776.234C760.391 776.078 759.305 775.852 758.258 775.555C757.227 775.242 756.242 774.859 755.305 774.406V767.656C756.93 768.375 758.617 769.023 760.367 769.602C762.117 770.18 763.852 770.469 765.57 770.469C766.758 770.469 767.711 770.312 768.43 770C769.164 769.688 769.695 769.258 770.023 768.711C770.352 768.164 770.516 767.539 770.516 766.836C770.516 765.977 770.227 765.242 769.648 764.633C769.07 764.023 768.273 763.453 767.258 762.922C766.258 762.391 765.125 761.82 763.859 761.211C763.062 760.836 762.195 760.383 761.258 759.852C760.32 759.305 759.43 758.641 758.586 757.859C757.742 757.078 757.047 756.133 756.5 755.023C755.969 753.898 755.703 752.555 755.703 750.992C755.703 748.945 756.172 747.195 757.109 745.742C758.047 744.289 759.383 743.18 761.117 742.414C762.867 741.633 764.93 741.242 767.305 741.242C769.086 741.242 770.781 741.453 772.391 741.875C774.016 742.281 775.711 742.875 777.477 743.656L775.133 749.305C773.555 748.664 772.141 748.172 770.891 747.828C769.641 747.469 768.367 747.289 767.07 747.289C766.164 747.289 765.391 747.438 764.75 747.734C764.109 748.016 763.625 748.422 763.297 748.953C762.969 749.469 762.805 750.07 762.805 750.758C762.805 751.57 763.039 752.258 763.508 752.82C763.992 753.367 764.711 753.898 765.664 754.414C766.633 754.93 767.836 755.531 769.273 756.219C771.023 757.047 772.516 757.914 773.75 758.82C775 759.711 775.961 760.766 776.633 761.984C777.305 763.188 777.641 764.688 777.641 766.484Z" fill="#2B3840"/>
</svg>
