<svg xmlns="http://www.w3.org/2000/svg" viewBox="0 0 48 48" id="telegram">
  <circle cx="24" cy="24" r="22" fill="#039be5" transform="rotate(-75.53 23.997 24.002)"></circle>
  <path fill="#fff" d="M8.64,23.28l18.44-7.6c1.82-.79,8-3.33,8-3.33s2.85-1.1,2.61,1.59c-.07,1.11-.71,5-1.34,9.18l-2,12.43s-.16,1.82-1.5,2.13-3.57-1.1-4-1.42-5.94-3.8-8-5.54A1.5,1.5,0,0,1,21,28.19c2.85-2.62,6.26-5.86,8.31-7.92.95-.95,1.9-3.17-2.05-.48L16.08,27.31a4.63,4.63,0,0,1-3.65.08c-2.37-.71-5.14-1.66-5.14-1.66s-1.9-1.19,1.35-2.45Zm0,0"></path>
</svg>
